<svg width="25" height="25" viewBox="0 0 25 25" fill="none" xmlns="http://www.w3.org/2000/svg">
<path d="M5.02862 13.8693C5.0278 13.7199 5.06047 13.5722 5.12422 13.4371C5.18797 13.302 5.28118 13.1829 5.39701 13.0885L11.387 8.24612C11.5656 8.09867 11.7899 8.0178 12.0215 8.01732C12.2531 8.01684 12.4778 8.09678 12.657 8.24349L18.6673 13.2311C18.8719 13.4004 19.0008 13.644 19.0258 13.9084C19.0507 14.1728 18.9696 14.4362 18.8002 14.6408C18.6309 14.8454 18.3873 14.9743 18.1229 14.9992C17.8585 15.0241 17.5951 14.943 17.3905 14.7737L12.0213 10.3148L6.67023 14.6459C6.5237 14.7685 6.34512 14.8465 6.15562 14.8708C5.96612 14.8951 5.77364 14.8646 5.60094 14.7829C5.42824 14.7012 5.28256 14.5717 5.18114 14.4098C5.07971 14.2479 5.02679 14.0603 5.02862 13.8693Z" fill="black"/>
</svg>
